HIERARCHY
ROOT root
{
	OFFSET 0.00 0.00 0.00
	CHANNELS 6 Xposition Yposition Zposition Xrotation Yrotation Zrotation
	JOINT back1
	{
		OFFSET 4.33070 0.00000 0.00000
		CHANNELS 3 Xrotation Yrotation Zrotation
		JOINT back2
		{
			OFFSET 4.72440 0.00000 0.00000
			CHANNELS 3 Xrotation Yrotation Zrotation
			JOINT back3
			{
				OFFSET 4.72440 0.00000 0.00000
				CHANNELS 3 Xrotation Yrotation Zrotation
				JOINT back4
				{
					OFFSET 4.72440 0.00000 0.00000
					CHANNELS 3 Xrotation Yrotation Zrotation
					JOINT neck1
					{
						OFFSET 0.00000 0.00000 0.00000
						CHANNELS 3 Xrotation Yrotation Zrotation
						JOINT neck2
						{
							OFFSET 2.56508 0.00000 0.45229
							CHANNELS 3 Xrotation Yrotation Zrotation
							JOINT neck3
							{
								OFFSET 2.44757 0.00000 0.89084
								CHANNELS 3 Xrotation Yrotation Zrotation
								JOINT head
								{
									OFFSET 2.25569 0.00000 1.30233
									CHANNELS 3 Xrotation Yrotation Zrotation
									End Site
									{
										OFFSET 3.87719 0.00000 0.68365
									}
								}
							}
						}
					}
					JOINT L_shoulde
					{
						OFFSET 0.00000 3.14960 0.00000
						CHANNELS 3 Xrotation Yrotation Zrotation
						JOINT L_arm
						{
							OFFSET 1.96850 0.00000 -3.40954
							CHANNELS 3 Xrotation Yrotation Zrotation
							JOINT L_forearm
							{
								OFFSET -2.01980 0.00000 -5.54935
								CHANNELS 3 Xrotation Yrotation Zrotation
								JOINT L_hand
								{
									OFFSET -0.00001 0.00000 -7.87400
									CHANNELS 3 Xrotation Yrotation Zrotation
									JOINT L_finger
									{
										OFFSET 0.76422 0.00000 -2.85214
										CHANNELS 3 Xrotation Yrotation Zrotation
										End Site
										{
											OFFSET 1.67033 0.00000 -1.67033
										}
									}
								}
							}
						}
					}
					JOINT R_shoulde
					{
						OFFSET 0.00000 -3.14960 0.00000
						CHANNELS 3 Xrotation Yrotation Zrotation
						JOINT R_arm
						{
							OFFSET 1.96850 0.00000 -3.40954
							CHANNELS 3 Xrotation Yrotation Zrotation
							JOINT R_forearm
							{
								OFFSET -2.01980 0.00000 -5.54935
								CHANNELS 3 Xrotation Yrotation Zrotation
								JOINT r_hand
								{
									OFFSET -0.00001 0.00000 -7.87400
									CHANNELS 3 Xrotation Yrotation Zrotation
									JOINT r_finger
									{
										OFFSET 0.76422 0.00000 -2.85214
										CHANNELS 3 Xrotation Yrotation Zrotation
										End Site
										{
											OFFSET 1.67033 0.00000 -1.67033
										}
									}
								}
							}
						}
					}
				}
			}
		}
	}
	JOINT L_hip
	{
		OFFSET -1.96850 2.95275 -2.36220
		CHANNELS 3 Xrotation Yrotation Zrotation
		JOINT L_leg
		{
			OFFSET 1.02548 0.00000 -5.81578
			CHANNELS 3 Xrotation Yrotation Zrotation
			JOINT L_foot
			{
				OFFSET -5.06131 0.00000 -6.03183
				CHANNELS 3 Xrotation Yrotation Zrotation
				JOINT L_toe
				{
					OFFSET 0.00000 0.00000 -4.72440
					CHANNELS 3 Xrotation Yrotation Zrotation
					End Site
					{
						OFFSET 1.50796 0.00000 -1.26533
					}
				}
			}
		}
	}
	JOINT R_hip
	{
		OFFSET -1.96850 -2.95275 -2.36220
		CHANNELS 3 Xrotation Yrotation Zrotation
		JOINT R_leg
		{
			OFFSET 1.02548 0.00000 -5.81578
			CHANNELS 3 Xrotation Yrotation Zrotation
			JOINT R_foot
			{
				OFFSET -5.06131 0.00000 -6.03183
				CHANNELS 3 Xrotation Yrotation Zrotation
				JOINT R_toe
				{
					OFFSET 0.00000 0.00000 -4.72440
					CHANNELS 3 Xrotation Yrotation Zrotation
					End Site
					{
						OFFSET 1.50796 0.00000 -1.26533
					}
				}
			}
		}
	}
	JOINT W1
	{
		OFFSET -3.54330 0.00000 0.00000
		CHANNELS 3 Xrotation Yrotation Zrotation
		JOINT W2
		{
			OFFSET -2.97605 0.00000 -3.54672
			CHANNELS 3 Xrotation Yrotation Zrotation
			JOINT W3
			{
				OFFSET -2.23204 0.00000 -2.66004
				CHANNELS 3 Xrotation Yrotation Zrotation
				JOINT W4
				{
					OFFSET -2.23204 0.00000 -2.66004
					CHANNELS 3 Xrotation Yrotation Zrotation
					End Site
					{
						OFFSET -2.48004 0.00000 -2.95560
					}
				}
			}
		}
	}
}
MOTION
Frames: 7
Frame Time: 0.008333
 75.4708 20.7659 -9.4388 -90.6810 -7.6295 73.2389 5.3032 0.3887 6.3175 4.3712 5.8810 3.0958 1.7265 0.6825 7.8235 -2.1273 -4.5675 -1.3921 -9.8323 -0.9155 13.3638 2.3117 17.8910 2.7558 -2.8834 25.9975 8.3121 6.2715 12.6878 19.9445 2.6561 20.9048 -11.8892 -2.0950 -12.2123 16.8188 -0.0000 -19.0283 -0.0000 0.0000 -11.0119 -0.0000 -0.0000 -12.4804 -0.0000 -10.8573 12.2031 -22.5355 3.1104 -3.9502 -9.4396 -0.0000 -8.1261 -0.0000 0.0000 -3.1410 0.0000 -0.0000 -25.9051 -0.0000 7.2638 1.8894 38.2115 0.0000 -27.2585 0.0000 -0.0000 -1.9755 -0.0000 -0.0000 -9.3612 -0.0000 -3.9481 -6.8805 -17.1954 0.0000 -2.4006 -0.0000 0.0000 8.4193 0.0000 0.0000 15.5738 -0.0000 -89.1265 39.8671 73.0583 52.3986 41.1569 11.5967 35.1311 25.6290 -31.9442 34.8933 -18.8243 12.3177
 75.4708 20.7676 -9.4560 -90.6909 -7.6390 73.3883 5.2603 0.3573 6.4525 4.3154 5.8639 3.1429 1.7330 0.7553 7.8399 -2.1532 -4.5749 -1.4599 -9.8027 -0.6892 13.4000 2.2513 17.8723 2.6589 -3.0621 26.0145 8.3460 6.7038 12.6480 19.8335 2.4276 21.0311 -11.6163 -2.0746 -12.3661 16.6058 0.0000 -19.0369 0.0000 0.0000 -11.1852 0.0000 -0.0000 -12.7515 -0.0000 -10.9002 12.3720 -22.5546 3.0508 -4.1049 -9.3451 0.0000 -8.1611 0.0000 -0.0000 -2.8789 0.0000 -0.0000 -25.7229 -0.0000 7.2702 1.8619 38.2082 -0.0000 -27.2435 -0.0000 0.0000 -1.9712 0.0000 -0.0000 -9.3482 -0.0000 -3.9863 -6.7704 -17.4029 -0.0000 -2.4691 0.0000 -0.0000 8.4931 -0.0000 0.0000 15.5945 -0.0000 -89.0222 40.1585 73.3272 52.6782 40.8625 11.4100 34.8462 25.9623 -31.8009 28.7987 -20.0040 6.5562
 75.4703 20.7696 -9.4742 -90.7121 -7.6535 73.5311 5.2295 0.3306 6.5888 4.2581 5.8221 3.1956 1.7417 0.8630 7.8662 -2.1599 -4.5818 -1.5344 -9.7949 -0.4785 13.4594 2.1877 17.8191 2.5434 -3.1910 26.0700 8.4921 7.0643 12.6734 19.6856 2.1717 21.1429 -11.3391 -2.0524 -12.5499 16.3923 0.0000 -18.9945 0.0000 -0.0000 -11.4164 -0.0000 0.0000 -13.0162 -0.0000 -10.9998 12.5385 -22.5556 3.0099 -4.2546 -9.2865 0.0000 -8.1871 0.0000 -0.0000 -2.6364 -0.0000 0.0000 -25.5333 -0.0000 7.2783 1.8340 38.2114 0.0000 -27.2398 0.0000 0.0000 -1.9598 -0.0000 -0.0000 -9.3400 -0.0000 -4.0186 -6.6633 -17.6197 0.0000 -2.5498 -0.0000 -0.0000 8.5707 0.0000 -0.0000 15.6371 -0.0000 -88.8897 40.4553 73.5619 52.9690 40.5581 11.2930 34.5780 26.3281 -31.7145 22.8863 -20.6082 0.9463
 75.4697 20.7722 -9.4932 -90.7375 -7.6788 73.6758 5.2160 0.3048 6.7152 4.1946 5.7997 3.2573 1.7556 0.9650 7.9042 -2.1302 -4.5888 -1.6241 -9.8125 -0.3043 13.5505 2.0986 17.7933 2.4866 -3.0533 26.1300 8.4588 7.2131 12.7419 19.6315 1.8633 21.2575 -11.0602 -2.0200 -12.7667 16.1886 -0.0000 -18.9187 0.0000 0.0000 -11.6772 0.0000 -0.0000 -13.2741 -0.0000 -11.1952 12.6739 -22.5400 3.0042 -4.3387 -9.2577 -0.0000 -8.2414 -0.0000 -0.0000 -2.3660 0.0000 -0.0000 -25.3562 -0.0000 7.2977 1.8096 38.2087 -0.0000 -27.2408 -0.0000 -0.0000 -1.9446 0.0000 0.0000 -9.3368 -0.0000 -4.0337 -6.5595 -17.8178 0.0000 -2.6360 0.0000 0.0000 8.6710 -0.0000 -0.0000 15.6838 0.0000 -88.7550 40.7461 73.7590 53.2597 40.2677 11.2639 34.3397 26.7321 -31.7001 17.7180 -20.7409 -3.9621
 75.4695 20.7754 -9.5128 -90.7693 -7.7194 73.8244 5.2221 0.2813 6.8338 4.1286 5.7812 3.3257 1.7731 1.0661 7.9436 -2.0866 -4.6032 -1.7231 -9.8384 -0.1428 13.6594 2.0270 17.7867 2.4302 -2.8756 26.1467 8.3954 7.3626 12.8167 19.6248 1.5346 21.3966 -10.7912 -1.9820 -13.0175 16.0007 0.0000 -18.8268 0.0000 -0.0000 -11.9506 0.0000 0.0000 -13.5236 0.0000 -11.4309 12.8048 -22.5068 3.0056 -4.4036 -9.2544 0.0000 -8.2784 -0.0000 -0.0000 -2.1324 0.0000 -0.0000 -25.1126 -0.0000 7.3377 1.7860 38.1959 0.0000 -27.2434 0.0000 0.0000 -1.9267 0.0000 -0.0000 -9.3379 -0.0000 -4.0245 -6.4586 -17.9988 -0.0000 -2.7353 -0.0000 0.0000 8.8100 -0.0000 0.0000 15.7194 0.0000 -88.6199 41.0221 73.9052 53.5404 40.0119 11.3229 34.1406 27.1752 -31.7756 13.7295 -20.6412 -7.7356
 75.4699 20.7791 -9.5329 -90.8068 -7.7748 73.9794 5.2457 0.2561 6.9437 4.0613 5.7705 3.3986 1.7930 1.1600 7.9822 -2.0375 -4.6336 -1.8305 -9.8581 0.0063 13.7887 1.9908 17.8328 2.3923 -2.5982 26.0775 8.1830 7.4929 12.8858 19.7136 1.1675 21.5875 -10.4777 -1.9207 -13.3039 15.7820 -0.0000 -18.7324 -0.0000 -0.0000 -12.2198 -0.0000 -0.0000 -13.7632 0.0000 -11.6823 12.9465 -22.4530 2.9981 -4.4683 -9.2697 -0.0000 -8.2614 0.0000 -0.0000 -2.0133 0.0000 0.0000 -24.7158 -0.0000 7.3997 1.7612 38.1703 0.0000 -27.2453 0.0000 -0.0000 -1.9059 -0.0000 0.0000 -9.3424 0.0000 -3.9893 -6.3500 -18.1692 -0.0000 -2.8568 0.0000 0.0000 8.9758 -0.0000 0.0000 15.7474 0.0000 -88.4952 41.2777 73.9957 53.7990 39.8065 11.4733 33.9913 27.6512 -31.9653 11.2736 -20.5872 -10.0139
 75.4707 20.7833 -9.5531 -90.8446 -7.8408 74.1409 5.2823 0.2310 7.0434 3.9915 5.7658 3.4745 1.8096 1.2593 8.0235 -1.9865 -4.6830 -1.9526 -9.8684 0.1466 13.9244 1.9811 17.8579 2.3615 -2.2748 26.0001 7.8640 7.6808 12.8869 19.8797 0.7493 21.8215 -10.0807 -1.8294 -13.6073 15.5036 -0.0000 -18.6594 0.0000 -0.0000 -12.4679 -0.0000 0.0000 -13.9923 0.0000 -11.9401 13.0729 -22.3751 2.9768 -4.5131 -9.3001 0.0000 -8.2025 0.0000 0.0000 -1.9827 -0.0000 -0.0000 -24.1655 0.0000 7.4769 1.7376 38.1344 -0.0000 -27.2462 -0.0000 0.0000 -1.8823 0.0000 0.0000 -9.3489 0.0000 -3.9346 -6.2350 -18.3262 -0.0000 -2.9896 0.0000 0.0000 9.1566 -0.0000 0.0000 15.7738 0.0000 -88.3905 41.5142 74.0536 54.0281 39.6486 11.6857 33.8820 28.1181 -32.2125 10.0454 -20.6577 -11.1184
